<svg width="19" height="18" viewBox="0 0 19 18" fill="none" xmlns="http://www.w3.org/2000/svg">
<path d="M9.94272 0C8.76347 0 7.59577 0.232627 6.50629 0.684599C5.4168 1.13657 4.42688 1.79904 3.59302 2.63417C1.90898 4.3208 0.962891 6.60836 0.962891 8.99362C0.962891 12.9688 3.5401 16.3414 7.10509 17.5376C7.55409 17.6095 7.69776 17.3307 7.69776 17.0879V15.568C5.21035 16.1076 4.68054 14.3628 4.68054 14.3628C4.26747 13.3195 3.68378 13.0407 3.68378 13.0407C2.86661 12.4831 3.74664 12.5011 3.74664 12.5011C4.64462 12.5641 5.12055 13.4275 5.12055 13.4275C5.9018 14.7945 7.22183 14.3898 7.73368 14.1739C7.8145 13.5894 8.04798 13.1936 8.29941 12.9688C6.30589 12.744 4.21359 11.9705 4.21359 8.54394C4.21359 7.54565 4.55482 6.74521 5.13851 6.10667C5.04871 5.88183 4.73442 4.94649 5.22831 3.73235C5.22831 3.73235 5.98262 3.48952 7.69776 4.6497C8.40717 4.45184 9.17943 4.35291 9.94272 4.35291C10.706 4.35291 11.4783 4.45184 12.1877 4.6497C13.9028 3.48952 14.6571 3.73235 14.6571 3.73235C15.151 4.94649 14.8367 5.88183 14.7469 6.10667C15.3306 6.74521 15.6719 7.54565 15.6719 8.54394C15.6719 11.9795 13.5706 12.735 11.5681 12.9598C11.8913 13.2386 12.1877 13.7872 12.1877 14.6236V17.0879C12.1877 17.3307 12.3314 17.6185 12.7893 17.5376C16.3543 16.3324 18.9226 12.9688 18.9226 8.99362C18.9226 7.81256 18.6903 6.64307 18.239 5.55191C17.7877 4.46075 17.1263 3.4693 16.2924 2.63417C15.4586 1.79904 14.4686 1.13657 13.3792 0.684599C12.2897 0.232627 11.122 0 9.94272 0Z" fill="white"/>
</svg>
